<svg width="500" height="500" viewBox="0 0 500 500" fill="none" xmlns="http://www.w3.org/2000/svg">
<g clip-path="url(#clip0_15_18)">
<g clip-path="url(#clip1_15_18)">
<path d="M448.69 273.042C408.027 246.848 396.503 192.534 423.027 152.085C435.078 132.64 439.014 109.316 433.997 87.0869C428.98 64.8577 415.407 45.4819 396.171 33.0906C376.935 20.6994 353.558 16.2732 331.025 20.7556C308.493 25.2381 288.586 38.2746 275.551 57.0857C248.9 97.7275 194.464 109.277 153.607 82.958C134.056 71.0608 110.571 67.2304 88.159 72.2836C65.7472 77.3369 46.1819 90.8739 33.6347 110.008C21.0874 129.143 16.5509 152.361 20.9924 174.712C25.4339 197.064 38.5021 216.78 57.4105 229.657C98.0735 255.851 109.597 310.164 83.0732 350.613C71.0226 370.058 67.086 393.382 72.103 415.611C77.1199 437.841 90.6934 457.216 109.929 469.608C129.165 481.999 152.542 486.425 175.075 481.943C197.608 477.46 217.514 464.424 230.55 445.613C257.2 404.971 311.636 393.421 352.494 419.74C372.044 431.638 395.529 435.468 417.941 430.415C440.353 425.361 459.918 411.824 472.465 392.69C485.013 373.555 489.549 350.337 485.108 327.986C480.666 305.635 467.598 285.919 448.69 273.042Z" fill="#FF007A"/>
<path d="M105.496 215.359L85.8848 217.123C85.0814 217.195 84.3612 216.965 83.7244 216.434C83.0875 215.902 82.7329 215.234 82.6607 214.431L78.0684 163.377C77.9961 162.574 78.2259 161.853 78.7576 161.216C79.2894 160.58 79.957 160.225 80.7604 160.153L100.371 158.389C101.175 158.317 101.895 158.546 102.532 159.078C103.169 159.61 103.523 160.277 103.595 161.081L108.188 212.135C108.26 212.938 108.03 213.658 107.498 214.295C106.967 214.932 106.299 215.287 105.496 215.359ZM100.88 137.027L102.072 150.284C102.144 151.087 101.914 151.807 101.383 152.444C100.851 153.081 100.183 153.436 99.38 153.508L80.8647 155.173C80.0613 155.246 79.3411 155.016 78.7043 154.484C78.0674 153.952 77.7128 153.285 77.6406 152.481L76.4482 139.225C76.3759 138.422 76.6056 137.701 77.1374 137.065C77.6691 136.428 78.3367 136.073 79.1401 136.001L97.6554 134.335C98.4588 134.263 99.179 134.493 99.8158 135.025C100.453 135.556 100.807 136.224 100.88 137.027ZM148.878 173.353L149.962 185.405C150.29 189.057 152.025 190.741 155.165 190.459L165.135 189.562C165.939 189.49 166.659 189.72 167.296 190.251C167.933 190.783 168.287 191.451 168.359 192.254L169.65 206.606C169.723 207.41 169.493 208.13 168.961 208.767C168.429 209.403 167.762 209.758 166.958 209.83L154.578 210.944C136.319 212.586 126.483 205.556 125.07 189.853L123.789 175.61L115.134 176.389C114.331 176.461 113.61 176.231 112.974 175.699C112.337 175.168 111.982 174.5 111.91 173.697L110.717 160.44C110.645 159.637 110.875 158.917 111.407 158.28C111.938 157.643 112.606 157.288 113.409 157.216L122.064 156.438L120.458 138.58C120.386 137.776 120.616 137.056 121.147 136.419C121.679 135.782 122.347 135.428 123.15 135.355L142.323 133.631C143.126 133.559 143.846 133.788 144.483 134.32C145.12 134.852 145.475 135.519 145.547 136.323L147.153 154.181L160.957 152.939C161.761 152.867 162.481 153.097 163.118 153.628C163.755 154.16 164.109 154.828 164.182 155.631L165.374 168.888C165.446 169.691 165.217 170.411 164.685 171.048C164.153 171.685 163.485 172.039 162.682 172.112L148.878 173.353ZM206.541 190.366C206.476 189.636 206.24 189.068 205.836 188.662C204.781 187.579 201.173 186.762 195.013 186.212C188.845 185.589 183.735 184.024 179.68 181.517C175.693 178.93 173.466 175.044 172.999 169.858C172.533 164.673 174.615 159.994 179.247 155.822C183.878 151.651 190.394 149.187 198.793 148.431C207.266 147.669 214.362 148.798 220.082 151.818C225.802 154.837 228.823 158.137 229.145 161.716C229.218 162.519 229.024 163.236 228.566 163.866C228.18 164.49 227.659 164.831 227.001 164.89L208.596 166.546C207.5 166.645 206.096 166.182 204.384 165.158C202.672 164.134 201.415 163.658 200.611 163.73C198.931 163.881 198.144 164.541 198.249 165.71C198.315 166.44 198.55 167.008 198.954 167.413C200.002 168.423 204.078 169.124 211.182 169.516C218.286 169.908 223.712 171.703 227.46 174.9C231.274 178.017 233.372 181.694 233.753 185.93C234.285 191.846 232.037 196.724 227.007 200.563C221.977 204.403 214.569 206.763 204.782 207.643C199.596 208.109 194.942 207.939 190.82 207.132C186.698 206.324 183.499 205.14 181.223 203.577C176.751 200.519 174.38 197.492 174.111 194.498C174.039 193.694 174.232 192.978 174.691 192.347C175.149 191.717 175.744 191.369 176.474 191.303L195.537 189.589C196.56 189.497 197.927 189.963 199.639 190.987C201.418 191.931 203.037 192.338 204.498 192.206C205.959 192.075 206.64 191.461 206.541 190.366Z" fill="white"/>
<path d="M243.95 242.454C242.781 242.559 241.798 243.089 241.001 244.045C240.276 244.993 239.992 246.344 240.15 248.097L242.87 278.335C242.942 279.138 242.713 279.859 242.181 280.495C241.649 281.132 240.981 281.487 240.178 281.559L220.896 283.294C220.092 283.366 219.372 283.136 218.735 282.604C218.099 282.073 217.744 281.405 217.672 280.602L215.021 251.131C214.66 247.113 213.018 245.236 210.097 245.499C208.855 245.611 207.839 246.181 207.047 247.209C206.323 248.158 206.033 249.436 206.177 251.042L208.907 281.39C208.979 282.193 208.75 282.914 208.218 283.55C207.686 284.187 207.019 284.542 206.215 284.614L186.495 286.388C185.691 286.46 184.971 286.23 184.334 285.699C183.697 285.167 183.343 284.499 183.271 283.696L178.678 232.642C178.606 231.839 178.836 231.118 179.368 230.482C179.899 229.845 180.567 229.49 181.37 229.418L199.447 227.792C200.251 227.72 200.971 227.949 201.608 228.481C202.245 229.013 202.599 229.68 202.672 230.484L202.997 234.099C204.287 232.069 206.214 230.165 208.778 228.388C211.622 226.439 214.906 225.297 218.631 224.962C226.665 224.239 232.339 226.748 235.654 232.487C237.177 229.773 239.396 227.438 242.313 225.482C245.223 223.454 248.321 222.291 251.608 221.996C257.524 221.464 262.532 223.112 266.631 226.94C270.804 230.761 273.261 236.799 274.003 245.052L276.723 275.29C276.796 276.093 276.566 276.814 276.034 277.45C275.502 278.087 274.835 278.442 274.031 278.514L254.749 280.248C253.946 280.321 253.226 280.091 252.589 279.559C251.952 279.028 251.597 278.36 251.525 277.557L248.874 248.085C248.513 244.068 246.871 242.191 243.95 242.454ZM281.204 220.438L299.719 218.773C301.399 218.621 302.647 219.393 303.462 221.087L314.692 245.258L321.758 219.441C322.33 217.622 323.493 216.634 325.246 216.476L343.542 214.831C344.2 214.772 344.807 214.975 345.364 215.44C345.915 215.832 346.213 216.284 346.259 216.795C346.305 217.306 346.305 217.711 346.258 218.01L321.818 292.549C321.245 294.368 320.046 295.36 318.22 295.524L300.252 297.14C299.595 297.199 298.991 297.032 298.44 296.64C297.962 296.241 297.694 295.713 297.635 295.056C297.582 294.472 297.586 294.103 297.646 293.951L304.518 272.127L278.88 224.071C278.787 223.858 278.728 223.606 278.702 223.314C278.836 221.535 279.67 220.576 281.204 220.438Z" fill="white"/>
<path d="M314.568 336.375L316.223 354.781C316.756 360.697 319.724 363.412 325.129 362.926C329.292 362.551 331.854 360.333 332.814 356.27C333.067 354.996 333.43 354.117 333.902 353.632C334.447 353.142 335.34 352.84 336.581 352.729L358.931 350.718C359.589 350.659 360.159 350.866 360.644 351.337C361.194 351.73 361.499 352.254 361.558 352.912C362.13 359.266 360.784 364.762 357.519 369.4C351.522 378.039 341.403 382.998 327.16 384.28C315.985 385.285 306.854 383.639 299.768 379.344C292.675 374.975 288.668 367.678 287.748 357.452L286.073 338.828C285.173 328.821 287.893 320.993 294.232 315.342C300.571 309.692 309.182 306.377 320.065 305.398C334.307 304.117 345.15 307.191 352.592 314.621C356.631 318.602 358.937 323.769 359.509 330.124C359.568 330.781 359.365 331.388 358.899 331.946C358.5 332.423 357.972 332.692 357.315 332.751L334.965 334.761C333.797 334.866 332.901 334.726 332.277 334.34C331.726 333.948 331.176 333.151 330.626 331.949C328.883 328.129 325.967 326.404 321.877 326.772C316.472 327.258 314.036 330.459 314.568 336.375ZM415.486 297.919L435.864 296.086C436.521 296.027 437.092 296.234 437.576 296.705C438.127 297.098 438.422 297.513 438.461 297.951C438.501 298.389 438.497 298.758 438.45 299.057L424.141 370.807C423.7 373.276 422.165 374.629 419.536 374.866L394.557 377.113C391.927 377.349 390.176 376.292 389.302 373.941L362.417 305.896C362.318 305.61 362.249 305.248 362.209 304.81C362.17 304.372 362.35 303.914 362.748 303.436C363.214 302.879 363.775 302.571 364.432 302.512L384.81 300.679C387.439 300.442 389.191 301.499 390.065 303.851L404.139 343.67L410.881 301.978C411.322 299.509 412.857 298.156 415.486 297.919Z" fill="white"/>
</g>
</g>
<defs>
<clipPath id="clip0_15_18">
<rect width="480" height="480" fill="white" transform="translate(10 10)"/>
</clipPath>
<clipPath id="clip1_15_18">
<rect width="500" height="500" fill="white" transform="translate(-26.3916 23.4023) rotate(-5.13988)"/>
</clipPath>
</defs>
</svg>
